- 
http://www.Speed.Cd      fast  and The Hottest Private Tracker on the net

Please Seed back to make the speed Faster!!!

------------------nfo--------------------------
-[img]http://img703.imageshack.us/img703/1428/howlingreborn.jpg[/img]

The.Howling.Reborn.2011.BRRip.XviD.AC3-EMBER 
http://www.imdb.com/title/tt1554092

Plot:
On the eve of his high school graduation, unremarkable Will Kidman finally bonds with the girl he has long 
yearned for, reclusive Eliana Wynter. But he also discovers a dark secret from his past... that he is 
about to become a werewolf.

Source                           : 720p.BluRay.x264-KaKa Thanks

General
Format                           : AVI
Format/Info                      : Audio Video Interleave
File size                        : 1.41 GiB
Duration                         : 1h 32mn
Overall bit rate                 : 2 188 Kbps
Writing application              : VirtualDubMod 1.5.10.2 (build 2540/release)
Writing library                  : VirtualDubMod build 2540/release

Video
ID                               : 0
Format                           : MPEG-4 Visual
Format profile                   : Advanced Simple@L5
Format settings, BVOP            : 2
Format settings, QPel            : No
Format settings, GMC             : No warppoints
Format settings, Matrix          : Default (H.263)
Muxing mode                      : Packed bitstream
Codec ID                         : XVID
Codec ID/Hint                    : XviD
Duration                         : 1h 32mn
Bit rate                         : 1 795 Kbps
Width                            : 720 pixels
Height                           : 400 pixels
Display aspect ratio             : 16:9
Frame rate                       : 23.976 fps
Color space                      : YUV
Chroma subsampling               : 4:2:0
Bit depth                        : 8 bits
Scan type                        : Progressive
Compression mode                 : Lossy
Bits/(Pixel*Frame)               : 0.260
Stream size                      : 1.15 GiB (82%)
Writing library                  : XviD 64

Audio
ID                               : 1
Format                           : AC-3
Format/Info                      : Audio Coding 3
Mode extension                   : CM (complete main)
Codec ID                         : 2000
Duration                         : 1h 32mn
Bit rate mode                    : Constant
Bit rate                         : 384 Kbps
Channel(s)                       : 6 channels
Channel positions                : Front: L C R, Side: L R, LFE
Sampling rate                    : 48.0 KHz
Bit depth                        : 16 bits
Compression mode                 : Lossy
Stream size                      : 253 MiB (18%)
Alignment                        : Split accross interleaves
Interleave, duration             : 42 ms (1.00 video frame)
Interleave, preload duration     : 500 ms

Screens
[img]http://img534.imageshack.us/img534/6500/31919181.png[/img]
[img]http://img510.imageshack.us/img510/2986/17386792.png[/img]
[img]http://img513.imageshack.us/img513/8784/64510680.png[/img]
[img]http://img14.imageshack.us/img14/9819/63127342.png[/img]

Greetz to

SHiRK, SHK, LKRG, UnKnOwN, IMAGiNE, SiC, BHRG, TaRiQ786, FLAWL3SS, Rx, Hive-CM8

SAMURAi, ViSUALiSE, RemixHD

And to all other groups past and present

Got something to offer?

then you should know where to find us